# xmcd CD database file
#
# Track frame offsets:
#	150
#	25055
#	48342
#
# Disc length: 977 seconds
#
# Revision: 0
# Processed by: cddbd v1.5.1PL0 Copyright (c) Steve Scherf et al.
# Submitted via: CDex 1.51
#
DISCID=1a03cf03
DTITLE=古内東子 - 銀座
DYEAR=1998
DGENRE=JPop
TTITLE0=銀座
TTITLE1=友達に戻れない
TTITLE2=銀座(backtracks)
EXTD=YEAR: 1998
EXTT0=
EXTT1=
EXTT2=
PLAYORDER=
